<svg width="25" height="27" viewBox="0 0 25 27" fill="none" xmlns="http://www.w3.org/2000/svg">
<path d="M21.6697 2.73716H20.32V1.43132C20.32 0.713114 19.7127 0.125488 18.9703 0.125488C18.228 0.125488 17.6206 0.713114 17.6206 1.43132V2.73716H6.82298V1.43132C6.82298 0.713114 6.21562 0.125488 5.47328 0.125488C4.73094 0.125488 4.12358 0.713114 4.12358 1.43132V2.73716H2.77387C1.2757 2.73716 0.0879599 3.91241 0.0879599 5.34882L0.0744629 23.6305C0.0744629 24.3232 0.358864 24.9874 0.865101 25.4772C1.37134 25.967 2.05794 26.2422 2.77387 26.2422H21.6697C23.1544 26.2422 24.3691 25.0669 24.3691 23.6305V5.34882C24.3691 3.91241 23.1544 2.73716 21.6697 2.73716ZM21.6697 22.3247C21.6697 23.0429 21.0624 23.6305 20.32 23.6305H4.12358C3.38124 23.6305 2.77387 23.0429 2.77387 22.3247V9.26633H21.6697V22.3247ZM5.47328 11.878H8.17269V14.4897H5.47328V11.878ZM10.8721 11.878H13.5715V14.4897H10.8721V11.878ZM16.2709 11.878H18.9703V14.4897H16.2709V11.878Z" fill="url(#paint0_linear_104_1539)"/>
<defs>
<linearGradient id="paint0_linear_104_1539" x1="-7.47836" y1="0.125488" x2="33.0773" y2="29.3682" gradientUnits="userSpaceOnUse">
<stop stop-color="#32DFF6"/>
<stop offset="1" stop-color="#004482"/>
</linearGradient>
</defs>
</svg>
