<svg width="28" height="27" viewBox="0 0 28 27" fill="none" xmlns="http://www.w3.org/2000/svg">
<path d="M20.1483 7.63403C19.3981 6.90476 18.5063 6.32626 17.5242 5.93182C16.542 5.53739 15.4889 5.33481 14.4255 5.33576V13.1708L8.70276 18.7075C11.8611 21.7632 16.9899 21.7632 20.1618 18.7075C20.9134 17.9801 21.5094 17.1164 21.9156 16.1659C22.3218 15.2153 22.5302 14.1966 22.529 13.1681C22.5277 12.1395 22.3168 11.1213 21.9083 10.1717C21.4998 9.22205 20.9017 8.35972 20.1483 7.63403ZM14.4255 0.112427C6.97514 0.112427 0.928467 5.96256 0.928467 13.1708C0.928467 20.379 6.97514 26.2291 14.4255 26.2291C21.8759 26.2291 27.9226 20.379 27.9226 13.1708C27.9226 5.96256 21.8759 0.112427 14.4255 0.112427ZM14.4255 23.6174C8.45982 23.6174 3.62788 18.9426 3.62788 13.1708C3.62788 7.39898 8.45982 2.72409 14.4255 2.72409C20.3912 2.72409 25.2231 7.39898 25.2231 13.1708C25.2231 18.9426 20.3912 23.6174 14.4255 23.6174Z" fill="url(#paint0_linear_104_1529)"/>
<defs>
<linearGradient id="paint0_linear_104_1529" x1="-7.46356" y1="0.112427" x2="34.2511" y2="33.533" gradientUnits="userSpaceOnUse">
<stop stop-color="#32DFF6"/>
<stop offset="1" stop-color="#004482"/>
</linearGradient>
</defs>
</svg>
