<svg width="31" height="27" viewBox="0 0 31 27" fill="none" xmlns="http://www.w3.org/2000/svg">
<path d="M13.7507 20.478L19.1225 17.5007C20.0268 17.0045 20.0268 15.7379 19.1225 15.2286L13.7507 12.2513C12.8464 11.7551 11.7261 12.3949 11.7261 13.3874V19.3289C11.7261 20.3344 12.8464 20.9742 13.7507 20.478ZM27.9226 5.91798H17.6783L21.6464 2.07883C21.9164 1.81766 21.9164 1.41285 21.6464 1.15169C21.3765 0.890519 20.9581 0.890519 20.6881 1.15169L15.7752 5.90492L10.8623 1.15169C10.5923 0.890519 10.1739 0.890519 9.904 1.15169C9.63406 1.41285 9.63406 1.81766 9.904 2.07883L13.8721 5.91798H3.62788C2.91195 5.91798 2.22534 6.19314 1.71911 6.68292C1.21287 7.1727 0.928467 7.83699 0.928467 8.52965V24.1997C0.928467 25.6361 2.1432 26.8113 3.62788 26.8113H27.9226C29.4072 26.8113 30.622 25.6361 30.622 24.1997V8.52965C30.622 7.83699 30.3376 7.1727 29.8313 6.68292C29.3251 6.19314 28.6385 5.91798 27.9226 5.91798ZM26.5728 24.1997H4.97758C4.23524 24.1997 3.62788 23.612 3.62788 22.8938V9.83548C3.62788 9.11727 4.23524 8.52965 4.97758 8.52965H26.5728C27.3152 8.52965 27.9226 9.11727 27.9226 9.83548V22.8938C27.9226 23.612 27.3152 24.1997 26.5728 24.1997Z" fill="url(#paint0_linear_104_1524)"/>
<defs>
<linearGradient id="paint0_linear_104_1524" x1="-8.30276" y1="0.955811" x2="33.729" y2="38.372" gradientUnits="userSpaceOnUse">
<stop stop-color="#32DFF6"/>
<stop offset="1" stop-color="#004482"/>
</linearGradient>
</defs>
</svg>
