<svg width="28" height="27" viewBox="0 0 28 27" fill="none" xmlns="http://www.w3.org/2000/svg">
<path d="M13.558 0.632812C6.10764 0.632812 0.0744629 6.48295 0.0744629 13.6912C0.0744629 20.8994 6.10764 26.7495 13.558 26.7495C21.0219 26.7495 27.0685 20.8994 27.0685 13.6912C27.0685 6.48295 21.0219 0.632812 13.558 0.632812ZM13.5715 24.1378C7.60581 24.1378 2.77387 19.4629 2.77387 13.6912C2.77387 7.91937 7.60581 3.24448 13.5715 3.24448C19.5372 3.24448 24.3691 7.91937 24.3691 13.6912C24.3691 19.4629 19.5372 24.1378 13.5715 24.1378ZM14.2464 7.16198H12.2218V14.997L19.3077 19.1104L20.32 17.5042L14.2464 14.0176V7.16198Z" fill="url(#paint0_linear_104_1534)"/>
<defs>
<linearGradient id="paint0_linear_104_1534" x1="-8.31756" y1="0.632813" x2="33.3971" y2="34.0534" gradientUnits="userSpaceOnUse">
<stop stop-color="#32DFF6"/>
<stop offset="1" stop-color="#004482"/>
</linearGradient>
</defs>
</svg>
